<?xml version="1.0" encoding="UTF-8" standalone="no"?>
<svg
   version="1.1"
   width="94.840942"
   height="37"
   viewBox="0 0 94.840942 37"
   id="svg16"
   sodipodi:docname="logo.svg"
   xmlns:inkscape="http://www.inkscape.org/namespaces/inkscape"
   xmlns:sodipodi="http://sodipodi.sourceforge.net/DTD/sodipodi-0.dtd"
   xmlns="http://www.w3.org/2000/svg"
   xmlns:svg="http://www.w3.org/2000/svg">
  <defs
     id="defs16" />
  <sodipodi:namedview
     id="namedview16"
     pagecolor="#ffffff"
     bordercolor="#000000"
     borderopacity="0.25"
     inkscape:showpageshadow="2"
     inkscape:pageopacity="0.0"
     inkscape:pagecheckerboard="0"
     inkscape:deskcolor="#d1d1d1"
     inkscape:zoom="0.14775"
     inkscape:cx="609.13705"
     inkscape:cy="500.84602"
     inkscape:window-width="1920"
     inkscape:window-height="1080"
     inkscape:window-x="0"
     inkscape:window-y="0"
     inkscape:window-maximized="1"
     inkscape:current-layer="svg16">
    <inkscape:page
       x="0"
       y="0"
       width="94.840942"
       height="37"
       id="page2"
       margin="0"
       bleed="0" />
  </sodipodi:namedview>
  <svg
     xml:space="preserve"
     width="1500"
     height="37"
     data-version="2"
     data-id="lg_5vLk5evDLZfMYPSZKF"
     viewBox="0 0 561 37"
     x="0"
     y="0"
     version="1.1"
     id="svg15"
     transform="translate(469.5)"><rect
       width="16.905695%"
       height="100%"
       fill="transparent"
       id="rect1"
       x="466.15906"
       y="0"
       style="stroke-width:0.411165" /><path
       fill="#fe4f32"
       d="m 494.035,35.495 -20.75,-34.99 h 12.39 l 9.39,15.56 7.38,-12.66 v 17.61 z m 10.13,0 V 0.505 h 11.65 v 34.99 z m -30.91,0 V 3.745 l 10.89,18.28 v 13.47 z"
       id="path13" /><rect
       width="42.560001"
       height="34.990002"
       x="-21.280001"
       y="-17.5"
       fill="none"
       rx="0"
       ry="0"
       transform="translate(495.04,18.5)"
       id="rect14" /><path
       fill="#fe4f32"
       d="m 528.365,35.495 -7.01,-6.99 V 7.495 l 7.01,-6.99 h 4.64 v 34.99 z m 14.24,-20.96 v -7.04 h -7.75 v -6.99 h 12.42 l 6.98,6.99 v 7.04 z m -7.75,20.96 v -6.99 h 7.75 v -5.11 h 11.65 v 5.11 l -6.98,6.99 z"
       id="path14" /><rect
       width="32.900002"
       height="34.990002"
       x="-16.450001"
       y="-17.5"
       fill="none"
       rx="0"
       ry="0"
       transform="translate(538.3,18.5)"
       id="rect15" /></svg>
</svg>
