<svg xmlns="http://www.w3.org/2000/svg" version="1.1" xmlns:xlink="http://www.w3.org/1999/xlink" width="1500" height="37" viewBox="0 0 1500 37"><svg xml:space="preserve" width="1500" height="37" data-version="2" data-id="lg_5vLk5evDLZfMYPSZKF" viewBox="0 0 561 37" x="0" y="0"><rect width="100%" height="100%" fill="transparent"></rect><path fill="#fe4f32" d="m12.755 35.495-7.01-6.99V7.495l7.01-6.99h4.64v34.99Zm14.24-20.96v-7.04h-7.75V.505h12.42l6.98 6.99v7.04Zm-7.75 20.96v-6.99h7.75v-5.11h11.65v5.11l-6.98 6.99Z"></path><rect width="32.9" height="34.99" x="-16.45" y="-17.5" fill="none" rx="0" ry="0" transform="translate(22.7 18.5)"></rect><path fill="#fe4f32" d="M61.615 35.495v-7.12h4.46V7.595h-4.46V.505h9.04l7.07 6.99v21.01l-7.07 6.99Zm-10.81 0-7.09-6.99V7.495l7.09-6.99h8.96v7.09h-4.37v20.78h4.37v7.12Z"></path><rect width="34.01" height="34.99" x="-17" y="-17.5" fill="none" rx="0" ry="0" transform="translate(61.22 18.5)"></rect><path fill="#fe4f32" d="M104.305 35.495 83.105.505h12.31l21.28 34.99Zm12.39-3.32-10.15-16.72V.505h10.15Zm-33.59 3.32V3.825l10.15 16.64v15.03Z"></path><rect width="33.59" height="34.99" x="-16.8" y="-17.5" fill="none" rx="0" ry="0" transform="translate(100.4 18.5)"></rect><path fill="#fe4f32" d="M144.305 35.495v-13.1h-15.14l-7.01-7.02v-7.88l7.01-6.99h3.96v12.42h16.08l6.78 7.01v8.57l-6.99 6.99Zm0-25.18v-3.51h-9.34v-6.3h14l6.07 6.09v3.72Zm-16.27 25.18-5.88-6.99v-3.5h11.65v4.16h8.65v6.33Z"></path><rect width="33.83" height="34.99" x="-16.91" y="-17.5" fill="none" rx="0" ry="0" transform="translate(139.57 18.5)"></rect><path fill="#fe4f32" d="M158.675 8.125V.505h30.37v7.62Zm9.12 27.37V9.945h12.13v25.55Z"></path><rect width="30.37" height="34.99" x="-15.19" y="-17.5" fill="none" rx="0" ry="0" transform="translate(174.36 18.5)"></rect><path fill="#fe4f32" d="M207.005 25.005v-6.78h8.75V7.495h-8.75V.505h13.31l7.02 6.99v10.49l-5.43 5.43 6.61 12.08h-12.44l-4.96-10.49Zm-13.5 10.49V.505h11.65v34.99Z"></path><rect width="35.01" height="34.99" x="-17.5" y="-17.5" fill="none" rx="0" ry="0" transform="translate(211.51 18.5)"></rect><path fill="#fe4f32" d="M250.215 35.495v-6.99h4.33v-28h11.65v28l-6.98 6.99Zm-10.81 0-7.01-6.99v-28h11.68v28h4.3v6.99Z"></path><rect width="33.8" height="34.99" x="-16.9" y="-17.5" fill="none" rx="0" ry="0" transform="translate(249.8 18.5)"></rect><path fill="#fe4f32" d="m278.565 35.495-7.01-6.99V7.495l7.01-6.99h4.64v34.99Zm14.24-20.96v-7.04h-7.75V.505h12.41l6.99 6.99v7.04Zm-7.75 20.96v-6.99h7.75v-5.11h11.65v5.11l-6.99 6.99Z"></path><rect width="32.9" height="34.99" x="-16.45" y="-17.5" fill="none" rx="0" ry="0" transform="translate(288.5 18.5)"></rect><path fill="#fe4f32" d="M307.565 8.125V.505h30.38v7.62Zm9.13 27.37V9.945h12.12v25.55Z"></path><rect width="30.38" height="34.99" x="-15.19" y="-17.5" fill="none" rx="0" ry="0" transform="translate(323.25 18.5)"></rect><path fill="#fe4f32" d="M358.985 35.495v-7.12h4.45V7.595h-4.45V.505h9.04l7.07 6.99v21.01l-7.07 6.99Zm-10.81 0-7.09-6.99V7.495l7.09-6.99h8.96v7.09h-4.37v20.78h4.37v7.12Z"></path><rect width="34.01" height="34.99" x="-17" y="-17.5" fill="none" rx="0" ry="0" transform="translate(358.59 18.5)"></rect><path fill="#fe4f32" d="M393.975 25.005v-6.78h8.75V7.495h-8.75V.505h13.31l7.02 6.99v10.49l-5.43 5.43 6.61 12.08h-12.44l-4.96-10.49Zm-13.5 10.49V.505h11.65v34.99Z"></path><rect width="35.01" height="34.99" x="-17.5" y="-17.5" fill="none" rx="0" ry="0" transform="translate(398.48 18.5)"></rect><path fill="#fe4f32" d="m444.175 35.495-1.48-3.82h-11.44l2.43-6.94h6.33l-9.37-24.23h11.37l13.95 34.99Zm-27.29 0 12.5-33.41 5.17 13.9-6.41 19.51Z"></path><rect width="39.08" height="34.99" x="-19.54" y="-17.5" fill="none" rx="0" ry="0" transform="translate(436.93 18.5)"></rect><path fill="#fe4f32" d="M494.035 35.495 473.285.505h12.39l9.39 15.56 7.38-12.66v17.61Zm10.13 0V.505h11.65v34.99Zm-30.91 0V3.745l10.89 18.28v13.47Z"></path><rect width="42.56" height="34.99" x="-21.28" y="-17.5" fill="none" rx="0" ry="0" transform="translate(495.04 18.5)"></rect><path fill="#fe4f32" d="m528.365 35.495-7.01-6.99V7.495l7.01-6.99h4.64v34.99Zm14.24-20.96v-7.04h-7.75V.505h12.42l6.98 6.99v7.04Zm-7.75 20.96v-6.99h7.75v-5.11h11.65v5.11l-6.98 6.99Z"></path><rect width="32.9" height="34.99" x="-16.45" y="-17.5" fill="none" rx="0" ry="0" transform="translate(538.3 18.5)"></rect></svg></svg>